<svg xmlns="http://www.w3.org/2000/svg" xmlns:xlink="http://www.w3.org/1999/xlink" viewBox="0 0 29.876 30">
  <defs>
    <style>
      .cls-1 {
        fill: none;
      }

      .cls-2 {
        clip-path: url(#clip-path);
      }

      .cls-3, .cls-4 {
        fill: #fff;
      }

      .cls-4 {
        fill-rule: evenodd;
      }
    </style>
    <clipPath id="clip-path">
      <rect id="Rectangle_19" data-name="Rectangle 19" class="cls-1" width="29.876" height="30"/>
    </clipPath>
  </defs>
  <g id="Artwork_6" data-name="Artwork 6" transform="translate(36.15 36.3)">
    <g id="Group_18" data-name="Group 18" class="cls-2" transform="translate(-36.15 -36.3)">
      <path id="Path_8675" data-name="Path 8675" class="cls-3" d="M6.118,0h.331a.289.289,0,0,1,.207.331V7.19c0,.248.083.248.248.248h.7a.248.248,0,0,0,.248-.248A1.735,1.735,0,0,0,7.9,6.942q0-.5,0-.992V.372c0-.207,0-.289.248-.331H24.176a5.124,5.124,0,0,1,1.2.124,5.868,5.868,0,0,1,3.14,1.9A5.537,5.537,0,0,1,29.8,4.752,9.5,9.5,0,0,1,29.92,6.4c0,1.074,0,2.149,0,3.182,0,.165-.041.207-.207.207H20.705a.661.661,0,0,1-.5-.207A7.273,7.273,0,0,0,18.928,8.6,7.438,7.438,0,0,0,13.6,7.6,7.6,7.6,0,0,0,9.755,9.587a.7.7,0,0,1-.5.207H.292c-.165,0-.207-.041-.207-.207V8.8c0-1.116-.041-2.273.041-3.388A5.661,5.661,0,0,1,.581,3.43,6.281,6.281,0,0,1,2.523,1.116h.041V7.19c0,.248.083.248.248.248h.661a.248.248,0,0,0,.248-.248,2.231,2.231,0,0,0,0-.289q.041-3.058.041-6.074a.992.992,0,0,0,0-.124C3.722.5,3.763.5,3.928.372A1.612,1.612,0,0,1,4.465.207c.165,0,.165.041.165.165a1.116,1.116,0,0,0,0,.165q0,2.727,0,5.455v1.2c0,.413.083.248.248.248H5.54c.207,0,.289-.083.289-.289a2.521,2.521,0,0,0,.041-.331V.413c0-.289.041-.331.289-.372m15.992,5h0V6.694a.868.868,0,0,0,.95.909h3.14a.909.909,0,0,0,.95-.95V3.43a.909.909,0,0,0-.95-.95H23.061a.868.868,0,0,0-.909.909c0,.537,0,1.116,0,1.653" transform="translate(-0.044)"/>
      <path id="Path_8676" data-name="Path 8676" class="cls-4" d="M8.713,25.835A7.562,7.562,0,0,0,7.391,31.5,7.355,7.355,0,0,0,9.87,36a7.6,7.6,0,0,0,9.628.372,7.4,7.4,0,0,0,2.975-4.917,7.6,7.6,0,0,0-1.322-5.579h8.471a.207.207,0,0,1,.207.207V39.389A5.579,5.579,0,0,1,28.3,43.232a5.744,5.744,0,0,1-3.264,1.818l-.992.083H5.862A5.826,5.826,0,0,1,.2,40.67,6.446,6.446,0,0,1-.006,39.1q0-4.215,0-8.471V26.29a1.86,1.86,0,0,1,0-.207.248.248,0,0,1,.289-.289h8.43Z" transform="translate(0.006 -15.133)"/>
      <path id="Path_8677" data-name="Path 8677" class="cls-4" d="M27.809,22.4a5.868,5.868,0,1,1-4.176,1.7,5.868,5.868,0,0,1,4.176-1.7m4.339,5.95a4.339,4.339,0,1,0-4.215,4.3,4.339,4.339,0,0,0,4.215-4.3" transform="translate(-12.85 -13.144)"/>
    </g>
  </g>
</svg>
